# xmcd CD database file
#
# Track frame offsets:
#	200
#	25805
#	46432
#	68675
#	89432
#	112217
#	133295
#	155497
#
# Disc length: 2293 seconds
#
# Revision: 1
# Processed by: cddbd v1.4PL0 Copyright (c) Steve Scherf et al.
# Submitted via: CDex 1.51
#
DISCID=6f08f308
DTITLE=Roy  Hytower and Motif - Root Doctor
DYEAR=1992
DGENRE=Blues
TTITLE0=Root Doctor
TTITLE1=Oscar
TTITLE2=Aerobic Fever
TTITLE3=Weekend Blues
TTITLE4=No Nonsense
TTITLE5=Shackin'
TTITLE6=Aerobic Work-Out
TTITLE7=Where Have You Been
EXTD=YEAR: 1992
EXTT0=
EXTT1=
EXTT2=
EXTT3=
EXTT4=
EXTT5=
EXTT6=
EXTT7=
PLAYORDER=
